<?xml version="1.0" encoding="UTF-8"?>
<!DOCTYPE svg PUBLIC "-//W3C//DTD SVG 1.1//EN" "http://www.w3.org/Graphics/SVG/1.1/DTD/svg11.dtd">
<!-- Creator: CorelDRAW -->
<svg xmlns="http://www.w3.org/2000/svg" xml:space="preserve" width="132.884mm" height="46.242mm" version="1.1" style="shape-rendering:geometricPrecision; text-rendering:geometricPrecision; image-rendering:optimizeQuality; fill-rule:evenodd; clip-rule:evenodd"
viewBox="0 0 11270.04 3921.84"
 xmlns:xlink="http://www.w3.org/1999/xlink"
 xmlns:xodm="http://www.corel.com/coreldraw/odm/2003">
 <defs>
  <style type="text/css">
   <![CDATA[
    .str0 {stroke:#FEFEFE;stroke-width:16.96;stroke-miterlimit:22.9256}
    .fil1 {fill:#FEFEFE}
    .fil0 {fill:#FEFEFE}
   ]]>
  </style>
 </defs>
 <g id="Capa_x0020_1">
  <metadata id="CorelCorpID_0Corel-Layer"/>
  <path class="fil0" d="M-0 3730.21c290.18,-14.09 584.99,-252.88 910.66,-447.06 907.01,-540.78 581.98,-435.15 1513.08,-445.18l-301.86 -577.12c-227.51,-7.58 -597.23,-40.02 -777.57,47.28 19.46,-91.21 652.23,-1464.76 691.7,-1509.7l1329.05 2924.81 675.02 8.79 -413.89 -942.25c-302.1,-667.12 -741,-1687.53 -1046.3,-2303.43 -59.46,-119.95 -176.36,-361.77 -210.76,-484.13l-698.12 -2.22 -1671.02 3730.21z"/>
  <g id="_2349941901600">
   <path class="fil1" d="M4127.41 2927.98c120.94,14.5 1335.82,4.55 1561.19,4.56 383.45,0.03 688.56,-61.69 990.87,-318.53 465.24,-395.28 546.02,-1204.01 132,-1663.45 -165.6,-183.77 -223.28,-224.22 -429.6,-352.4 -253.59,-95.94 -399.72,-113.91 -679.22,-113.86 -228.96,0.04 -1453.21,-10.08 -1570.75,4.56l-4.49 2439.12zm2209.91 -1770.15c-77.48,-78.2 -199.67,-160.28 -312.54,-164.62l-1384.33 -3.1 -4.75 1430.37c96.18,16.17 1314.03,13.33 1386.63,-4.83 555.89,-138.95 745.67,-823.25 314.99,-1257.83z"/>
   <polygon class="fil1 str0" points="8771.68,982.76 9769.05,991.41 9784.33,2950.73 10308.89,2951.25 10315.62,996.35 11255.97,989.2 11261.47,483.19 8772.24,476.67 "/>
   <polygon class="fil1" points="6992.07,2931.47 7596.29,2925.88 8189.05,1554.17 8841.53,2924.8 9397.13,2930.99 8182.76,362.28 "/>
  </g>
  <g id="_2349941903280">
   <path class="fil1" d="M5742.48 3911.93c9.13,-11.99 8.01,-32.86 7.9,-47.91 -0.15,-20.48 -0.29,-40.9 -0.29,-61.39 0,-64.25 -7.8,-318.32 6.11,-341.93 30.7,3.37 46.31,67.05 69.13,119.98l114.89 263.92c26.61,57.17 43.05,74.02 121.57,74.4 123.26,0.58 119.07,-47.6 184.61,-200.85l86.58 -200.66c11.12,-25.96 13.47,-52.85 40.65,-56.79 27.46,46.57 -13.8,415.57 13.73,450.47 17.52,13.82 95.62,13.82 113.15,0 18.31,-23.2 7.62,-321.39 7.62,-377.5 0,-44.84 9.97,-149.51 -18.03,-177.65 -25.76,-25.9 -133.03,-22.99 -176.34,-16.27 -53.11,8.26 -62.58,62.58 -83.53,111.6l-116.24 275.05c-57.22,134.74 -44.59,126.28 -190.82,-225.17 -69.66,-167.42 -50.44,-169.66 -228.4,-163.16 -79.43,2.9 -73.25,50.35 -73.07,122.22l-0.04 391.3c-0.43,42.24 -11.7,64.8 30,67.61 25.84,1.75 73.47,4.83 90.83,-7.29z"/>
   <path class="fil1" d="M9622.76 3915.76c12.48,-26.51 9.75,-87.08 1.53,-111.62 -60.41,-12.9 -254.48,-3.83 -328.61,-3.79 -160.96,0.09 -165.1,-6.81 -165.05,-168.88 0.04,-158.68 -2.6,-175.15 158.94,-174.99 75.12,0.07 273.64,9.24 334.72,-3.79 8.23,-24.54 10.95,-85.11 -1.53,-111.61 -50.46,-10.28 -385.92,-6.38 -447.3,0.23 -166.72,17.95 -173.21,123.82 -173.2,284.05 0.01,159.69 2.16,268.97 168.52,289.69 57.33,7.14 403.96,10.49 451.98,0.71z"/>
   <path class="fil1" d="M8102.13 3631.47c79.98,0 159.95,-0.01 239.91,0 96.72,0.02 155.78,20.39 156.19,-85.56 0.42,-108.73 -52.45,-91.77 -150.07,-91.72 -67.87,0.03 -179.6,-6.57 -242.23,2.29 -9.69,37.5 -3.8,131.11 -3.8,174.99zm-126.13 -256.75l0 513.5c0,38.67 27.38,29.83 90.96,29.83 50.12,0 35.17,-9.65 35.17,-176.54l252.14 0c19.78,0 70.35,73.49 85.14,92.05 78.56,98.59 44,84.49 177.71,84.49 78.43,0 -49.89,-96.63 -108.49,-188.76 55.72,-37.16 116.9,-18.41 116.9,-207.85 0,-139.92 -61.02,-184.16 -197.91,-184.16l-408.81 0c-37.28,0 -42.82,1.54 -42.82,37.44z"/>
   <path class="fil1" d="M7100.35 3700.22l275.06 -0.09c-5.28,-16.81 -116.38,-236.5 -139.84,-244.03 -19.77,13.65 -122.86,209.13 -135.22,244.12zm-250.68 214.74l127.65 3c21.28,-28.77 44.86,-75.33 60.38,-109.21l396.56 0c17.73,28.64 48.22,85.34 65.69,107.77l125.34 1.31c4.98,-34.41 -145.26,-284.16 -163.24,-317.19 -28.98,-53.26 -57.62,-101.66 -87.19,-157.05 -35.14,-65.8 -43.71,-105.68 -139.25,-106.49 -93,-0.79 -101.52,35.94 -136.94,102.5l-249 475.36z"/>
  </g>
 </g>
</svg>
