<?xml version="1.0" encoding="UTF-8"?>
<!DOCTYPE svg PUBLIC "-//W3C//DTD SVG 1.1//EN" "http://www.w3.org/Graphics/SVG/1.1/DTD/svg11.dtd">
<!-- Creator: CorelDRAW -->
<svg xmlns="http://www.w3.org/2000/svg" xml:space="preserve" width="600mm" height="400mm" version="1.1" style="shape-rendering:geometricPrecision; text-rendering:geometricPrecision; image-rendering:optimizeQuality; fill-rule:evenodd; clip-rule:evenodd"
viewBox="0 0 60000 40000"
 xmlns:xlink="http://www.w3.org/1999/xlink"
 xmlns:xodm="http://www.corel.com/coreldraw/odm/2003">
 <defs>
  <style type="text/css">
   <![CDATA[
    .fil0 {fill:#FEFEFE}
   ]]>
  </style>
 </defs>
 <g id="Capa_x0020_1">
  <metadata id="CorelCorpID_0Corel-Layer"/>
  <g id="_1909037948096">
   <path class="fil0" d="M39891.05 17685.81c464.15,-29.5 328.97,-295.45 923.3,-716.51 390.4,-276.57 648.1,-418.26 1065.07,-654.32 1288.33,-729.34 2840.22,-2148.17 3084.69,-3715.23 267.34,-1713.73 -57.36,-3445.88 -195.3,-3132.35l-110.2 -15.26c-15.02,0.35 -42.18,0.39 -59.3,1.81 -962.3,80.12 -2516.05,1093.18 -3163.92,1827.48 -971.97,1101.68 -1216.27,2192.35 -1218.71,4165.34l-106.22 -665.5c157.96,-2823.68 -392.86,-4900.66 -2733.56,-6465.12 -517.22,-345.7 -1616.02,-869.2 -2484.73,-874.93 -522.47,747.33 -501.43,2791.4 -319.92,3518.84 524.43,2101.58 1956.94,3265.38 3636.5,4391.36 1847.67,1238.71 1154.13,1192.2 1682.3,2334.39zm-15319.26 1065.37l-0.09 9096.26c-0.09,386.68 779.37,234.57 1546.13,239.96l38.7 -623.64c675.16,433.18 701.46,587.36 1697.37,787.46 720.42,144.76 1585.02,-13.86 2150.77,-290.75 676.58,-331.16 968.04,-646.98 1387.89,-1237.2 337.62,-474.64 546.98,-1263.17 546.33,-2071.81 -2.62,-3208.4 -3526.78,-4615.22 -5764.89,-2672.22 -68.11,-1158.75 22.67,-2362.2 -44.25,-3475.61l-1557.14 1.67 -0.82 245.88zm25970.38 9014.3l7.8 320.02 1463.27 0.5 7.69 -653.6c486.49,211.69 477.62,602.94 1732.22,816.07 784.67,133.29 1536.91,5.97 2143.5,-291.85 1095.31,-537.76 1924.81,-1648.55 1944.46,-3223.14 38.54,-3086.65 -3011.47,-4363.34 -5051.7,-3247.42 -379.09,207.32 -494.42,354.71 -772.03,546.22l0.64 -3525.17 -1476.29 -3.9 0.44 9262.27zm-48995.53 320.38c2039.52,-0.78 1555.07,254.92 2126.65,-1138.05 144.49,-352.14 382.8,-823.04 489.21,-1228.91l4258.26 0c116.66,440.01 281.91,698.93 457.71,1176.29 142.63,387.33 295.25,757.03 451.12,1192.81l1627.27 -1.37c-23.09,-427.63 -1724.85,-4300.68 -1935.89,-4855.53l-1526.43 -3633.69c-553.22,-1257.24 -17.73,-1094.2 -1878.39,-1094.2 -311.48,0 -385.88,540.37 -585.26,1036.91 -410.61,1022.66 -3428.97,8112.45 -3484.25,8545.74zm11950.06 -6217.4c2.34,-796.89 244.37,-648.43 -1549.78,-658.18l5.46 6875.22c1796,-2.36 1544.68,260.52 1545.01,-1057.55l0.07 -2950.14c0.07,-1119.15 593.42,-1637.39 1645.18,-1637.39 2127.77,0 1301.29,3031.09 1483.13,5644.82l1460.46 0.44c57.21,-1470.57 -210.42,-4196.21 323.86,-4998.88 587.33,-882.4 2349.66,-957.22 2793.46,255.59 175.08,478.55 122.42,3476.56 100.72,4184.76 -16.96,554.51 -101.81,567.93 465.73,567.21 354.57,-0.44 711.68,-9.61 1068.48,-8.38l9.41 -4335.96c-0.77,-3030.37 -3243.37,-3022.63 -4462.84,-2167.56 -308.12,216.03 -379.98,363.61 -620.06,533.78 -204.86,-136.26 -353.51,-397.08 -806.78,-674.25 -685.46,-419.18 -1794.62,-376.36 -2486.95,-166.18 -527.93,160.28 -615.39,354.45 -974.56,592.65zm30082.26 78.96c120.35,322.21 317.98,932.47 491.41,1134.78 774.94,-477.81 2341.88,-1061.92 3097.9,-217.2 246.54,275.46 343.57,620.69 345.26,1128.95 -1950.15,-1.76 -3510.89,-169.27 -4164.45,1248.77 -670.98,1455.86 184.86,3088.28 2278.32,3090.61 632.79,0.61 1479.41,-365.21 1797.31,-734.4 151.34,222.81 -32.3,434.49 251.38,486.37 228.65,-0.22 986.53,33.78 1153.13,2.75 424.52,-79.07 158.57,-319.11 158.44,-814.24l0.38 -3851.58c-0.34,-2692.38 -3515.98,-2884.08 -5409.08,-1474.81zm-6961.56 -3114.3c0.55,2954.43 -57.62,6424.4 8.34,9244.87l5636.22 7.73 5.67 -1384.98 -4095.42 -1.27 -0.02 -8195.82 -1552.33 1.91 -2.46 327.56zm-10500.59 5818.34c-3.12,2813.85 2834.36,2623.09 3679.14,1704.16 983.89,-1070.2 931.83,-3915.62 -1787.43,-3915.34 -1063.49,0.12 -1890.34,968.39 -1891.71,2211.18zm30080.44 327.8c-0.55,-727.6 -39.48,-1260.39 -515.87,-1856.69 -859.22,-1075.47 -3002.18,-932.61 -3535.66,671.22 -291.98,877.7 -148.26,1911.59 356.57,2504.08 1079.84,1267.35 3696.87,696.19 3694.96,-1318.61zm-22966.03 3108.48l1571.54 -2.52 9.41 -6870.29 -1554.47 -0.98 -26.48 6873.79zm-28576.48 -3684.04l3199.18 -0.23 -755.47 -1950.79c-235.78,-648.1 -541.2,-1306.26 -779.49,-2007.33 -14.98,18.26 -34.98,23.68 -41.53,57.4l-424.06 922.17c-151.73,345 -239.66,677.02 -384.68,1007.66 -275.68,628.6 -509.14,1359.58 -813.95,1971.12zm41218.5 2622.35c515.76,0 988.45,-188.74 1260.05,-459.02 392.72,-390.81 379.6,-701.71 378.94,-1421.99 -837.07,0.14 -2052.37,-121.84 -2517.72,350.32 -249.64,253.3 -355.66,701.14 -136.22,1073.69 175.32,297.6 654.19,457 1014.95,457zm-12288.94 -8850.63c-658.87,207.63 -895.95,708.12 -684.8,1254.18 450.95,1166.19 2503.53,600.51 2019.06,-700.92 -76.73,-206.07 -257.27,-429.56 -464.18,-527.66l-618.9 -106.51c-368.11,46.74 -175.47,57.06 -251.18,80.91zm6065.96 -2369.5c-227.93,-1319.13 -1983.85,-4616.71 -2714.72,-5094.58 177.96,749.94 1455.87,2996.78 1961.89,3868.79 181.08,312.04 520.16,1053.87 752.83,1225.79zm646.14 984.03c506.85,-360.25 2345.16,-3366.93 2549.32,-4273.27 -294.94,221.84 -1118.83,1535.42 -1396.39,1972.27 -355.78,559.95 -927.23,1575.96 -1152.93,2301z"/>
  </g>
 </g>
</svg>
