<?xml version="1.0" encoding="UTF-8"?>
<!DOCTYPE svg PUBLIC "-//W3C//DTD SVG 1.1//EN" "http://www.w3.org/Graphics/SVG/1.1/DTD/svg11.dtd">
<!-- Creator: CorelDRAW -->
<svg xmlns="http://www.w3.org/2000/svg" xml:space="preserve" width="1732px" height="643px" version="1.1" style="shape-rendering:geometricPrecision; text-rendering:geometricPrecision; image-rendering:optimizeQuality; fill-rule:evenodd; clip-rule:evenodd"
viewBox="0 0 1031.34 382.75"
 xmlns:xlink="http://www.w3.org/1999/xlink"
 xmlns:xodm="http://www.corel.com/coreldraw/odm/2003">
 <defs>
  <style type="text/css">
   <![CDATA[
    .fil0 {fill:#FEFEFE}
   ]]>
  </style>
 </defs>
 <g id="Capa_x0020_1">
  <metadata id="CorelCorpID_0Corel-Layer"/>
  <g id="_1909043838480">
   <path class="fil0" d="M702.48 187.68c8.5,-0.54 6.03,-5.41 16.92,-13.12 7.15,-5.07 11.87,-7.67 19.51,-11.99 23.6,-13.36 52.03,-39.35 56.51,-68.06 4.9,-31.4 -1.05,-63.13 -3.58,-57.39l-2.02 -0.28c-0.27,0.01 -0.77,0.01 -1.08,0.03 -17.63,1.47 -46.1,20.03 -57.97,33.48 -17.8,20.19 -22.28,40.17 -22.32,76.31l-1.95 -12.19c2.89,-51.73 -7.2,-89.78 -50.08,-118.44 -9.47,-6.33 -29.6,-15.93 -45.52,-16.03 -9.57,13.69 -9.19,51.14 -5.86,64.47 9.61,38.5 35.85,59.82 66.62,80.45 33.85,22.69 21.14,21.84 30.82,42.76zm-280.65 19.52l0 166.65c-0.01,7.08 14.27,4.3 28.32,4.39l0.71 -11.42c12.37,7.94 12.85,10.76 31.1,14.43 13.2,2.65 29.03,-0.26 39.4,-5.33 12.39,-6.07 17.73,-11.85 25.43,-22.67 6.18,-8.69 10.02,-23.14 10.01,-37.95 -0.05,-58.78 -64.62,-84.56 -105.62,-48.96 -1.25,-21.23 0.42,-43.28 -0.81,-63.67l-28.53 0.03 -0.01 4.5zm475.78 165.15l0.15 5.86 26.8 0.01 0.14 -11.98c8.92,3.88 8.75,11.05 31.74,14.96 14.37,2.44 28.16,0.1 39.27,-5.35 20.06,-9.85 35.26,-30.2 35.62,-59.05 0.71,-56.55 -55.17,-79.94 -92.55,-59.49 -6.94,3.79 -9.06,6.49 -14.14,10l0.01 -64.58 -27.05 -0.07 0.01 169.69zm-897.61 5.87c37.36,-0.02 28.49,4.67 38.96,-20.85 2.65,-6.45 7.01,-15.08 8.96,-22.52l78.02 0c2.13,8.06 5.16,12.81 8.38,21.55 2.61,7.1 5.41,13.87 8.27,21.86l29.81 -0.03c-0.42,-7.83 -31.6,-78.79 -35.47,-88.95l-27.96 -66.58c-10.14,-23.03 -0.33,-20.04 -34.42,-20.04 -5.7,0 -7.07,9.9 -10.72,19 -7.52,18.73 -62.82,148.62 -63.83,156.56zm218.93 -113.91c0.04,-14.6 4.48,-11.88 -28.39,-12.06l0.1 125.96c32.9,-0.04 28.3,4.77 28.3,-19.38l0 -54.04c0,-20.51 10.87,-30 30.14,-30 38.98,0 23.84,55.53 27.17,103.41l26.76 0.01c1.05,-26.94 -3.85,-76.87 5.93,-91.58 10.76,-16.16 43.05,-17.54 51.18,4.68 3.21,8.77 2.24,63.7 1.85,76.67 -0.31,10.16 -1.87,10.41 8.53,10.39 6.49,-0.01 13.04,-0.17 19.57,-0.15l0.18 -79.44c-0.02,-55.52 -59.42,-55.37 -81.77,-39.71 -5.64,3.96 -6.96,6.66 -11.35,9.78 -3.76,-2.5 -6.48,-7.27 -14.79,-12.35 -12.55,-7.68 -32.87,-6.9 -45.56,-3.05 -9.67,2.94 -11.27,6.5 -17.85,10.86zm551.11 1.45c2.21,5.9 5.83,17.08 9.01,20.79 14.19,-8.76 42.9,-19.46 56.75,-3.98 4.52,5.04 6.3,11.37 6.33,20.68 -35.73,-0.03 -64.32,-3.1 -76.3,22.88 -12.29,26.67 3.39,56.58 41.74,56.62 11.6,0.01 27.11,-6.69 32.93,-13.45 2.77,4.08 -0.59,7.96 4.61,8.91 4.18,-0.01 18.07,0.61 21.12,0.05 7.78,-1.45 2.91,-5.85 2.9,-14.92l0.01 -70.56c-0.01,-49.33 -64.41,-52.84 -99.1,-27.02zm-127.53 -57.06c0.01,54.13 -1.06,117.7 0.15,169.37l103.26 0.14 0.1 -25.37 -75.03 -0.02 0 -150.15 -28.44 0.03 -0.04 6zm-192.38 106.6c-0.05,51.55 51.93,48.05 67.41,31.22 18.02,-19.61 17.07,-71.74 -32.75,-71.73 -19.48,0 -34.63,17.74 -34.66,40.51zm551.09 6c-0.01,-13.33 -0.73,-23.09 -9.46,-34.01 -15.74,-19.71 -55,-17.09 -64.77,12.29 -5.35,16.08 -2.72,35.02 6.53,45.88 19.79,23.22 67.73,12.75 67.7,-24.16zm-420.75 56.95l28.79 -0.05 0.17 -125.86 -28.47 -0.02 -0.49 125.93zm-523.53 -67.49l58.61 -0.01 -13.84 -35.74c-4.32,-11.87 -9.91,-23.93 -14.28,-36.77 -0.27,0.33 -0.64,0.43 -0.76,1.05l-7.77 16.9c-2.78,6.32 -4.39,12.4 -7.05,18.46 -5.05,11.51 -9.32,24.9 -14.91,36.11zm755.14 48.04c9.45,0 18.11,-3.46 23.08,-8.41 7.2,-7.16 6.96,-12.86 6.94,-26.05 -15.33,0 -37.6,-2.23 -46.12,6.42 -4.58,4.64 -6.52,12.84 -2.5,19.67 3.21,5.45 11.99,8.37 18.6,8.37zm-225.14 -162.15c-12.07,3.81 -16.41,12.98 -12.55,22.98 8.27,21.37 45.87,11 36.99,-12.84 -1.4,-3.78 -4.71,-7.87 -8.5,-9.67l-11.34 -1.95c-6.74,0.86 -3.21,1.05 -4.6,1.48zm111.13 -43.41c-4.18,-24.16 -36.35,-84.58 -49.73,-93.33 3.26,13.74 26.67,54.9 35.94,70.88 3.31,5.71 9.53,19.3 13.79,22.45zm11.84 18.03c9.28,-6.6 42.96,-61.68 46.7,-78.29 -5.4,4.07 -20.5,28.13 -25.58,36.14 -6.52,10.26 -16.99,28.87 -21.12,42.15z"/>
  </g>
 </g>
</svg>
